<mxfile host="Electron" agent="Mozilla/5.0 (Windows NT 10.0; Win64; x64) AppleWebKit/537.36 (KHTML, like Gecko) draw.io/24.7.17 Chrome/128.0.6613.36 Electron/32.0.1 Safari/537.36" version="24.7.17">
  <diagram name="Page-1" id="mMwmaIKXyp2e6OKO22OM">
    <mxGraphModel dx="1063" dy="545" grid="1" gridSize="10" guides="1" tooltips="1" connect="1" arrows="1" fold="1" page="1" pageScale="1" pageWidth="1600" pageHeight="900" math="0" shadow="0">
      <root>
        <mxCell id="0" />
        <mxCell id="1" parent="0" />
        <mxCell id="Avi-Nypaj0kQ8kdH_EXp-11" style="edgeStyle=orthogonalEdgeStyle;rounded=0;orthogonalLoop=1;jettySize=auto;html=1;exitX=1;exitY=0.5;exitDx=0;exitDy=0;entryX=0;entryY=0.5;entryDx=0;entryDy=0;" edge="1" parent="1" source="Avi-Nypaj0kQ8kdH_EXp-1" target="Avi-Nypaj0kQ8kdH_EXp-4">
          <mxGeometry relative="1" as="geometry" />
        </mxCell>
        <mxCell id="Avi-Nypaj0kQ8kdH_EXp-12" style="edgeStyle=orthogonalEdgeStyle;rounded=0;orthogonalLoop=1;jettySize=auto;html=1;exitX=1;exitY=0.5;exitDx=0;exitDy=0;entryX=0;entryY=0.5;entryDx=0;entryDy=0;" edge="1" parent="1" source="Avi-Nypaj0kQ8kdH_EXp-1" target="Avi-Nypaj0kQ8kdH_EXp-3">
          <mxGeometry relative="1" as="geometry" />
        </mxCell>
        <mxCell id="Avi-Nypaj0kQ8kdH_EXp-13" style="edgeStyle=orthogonalEdgeStyle;rounded=0;orthogonalLoop=1;jettySize=auto;html=1;exitX=1;exitY=0.5;exitDx=0;exitDy=0;entryX=0;entryY=0.5;entryDx=0;entryDy=0;" edge="1" parent="1" source="Avi-Nypaj0kQ8kdH_EXp-1" target="Avi-Nypaj0kQ8kdH_EXp-2">
          <mxGeometry relative="1" as="geometry" />
        </mxCell>
        <mxCell id="Avi-Nypaj0kQ8kdH_EXp-14" style="edgeStyle=orthogonalEdgeStyle;rounded=0;orthogonalLoop=1;jettySize=auto;html=1;exitX=1;exitY=0.5;exitDx=0;exitDy=0;entryX=0;entryY=0.5;entryDx=0;entryDy=0;" edge="1" parent="1" source="Avi-Nypaj0kQ8kdH_EXp-1" target="Avi-Nypaj0kQ8kdH_EXp-7">
          <mxGeometry relative="1" as="geometry" />
        </mxCell>
        <mxCell id="Avi-Nypaj0kQ8kdH_EXp-15" style="edgeStyle=orthogonalEdgeStyle;rounded=0;orthogonalLoop=1;jettySize=auto;html=1;exitX=1;exitY=0.5;exitDx=0;exitDy=0;entryX=0;entryY=0.5;entryDx=0;entryDy=0;" edge="1" parent="1" source="Avi-Nypaj0kQ8kdH_EXp-1" target="Avi-Nypaj0kQ8kdH_EXp-8">
          <mxGeometry relative="1" as="geometry" />
        </mxCell>
        <mxCell id="Avi-Nypaj0kQ8kdH_EXp-16" style="edgeStyle=orthogonalEdgeStyle;rounded=0;orthogonalLoop=1;jettySize=auto;html=1;exitX=1;exitY=0.5;exitDx=0;exitDy=0;entryX=0;entryY=0.5;entryDx=0;entryDy=0;" edge="1" parent="1" source="Avi-Nypaj0kQ8kdH_EXp-1" target="Avi-Nypaj0kQ8kdH_EXp-9">
          <mxGeometry relative="1" as="geometry" />
        </mxCell>
        <mxCell id="Avi-Nypaj0kQ8kdH_EXp-1" value="index" style="rounded=1;whiteSpace=wrap;html=1;" vertex="1" parent="1">
          <mxGeometry x="210" y="80" width="120" height="60" as="geometry" />
        </mxCell>
        <mxCell id="Avi-Nypaj0kQ8kdH_EXp-17" style="edgeStyle=orthogonalEdgeStyle;rounded=0;orthogonalLoop=1;jettySize=auto;html=1;exitX=1;exitY=0.5;exitDx=0;exitDy=0;entryX=0;entryY=0.5;entryDx=0;entryDy=0;" edge="1" parent="1" source="Avi-Nypaj0kQ8kdH_EXp-2" target="Avi-Nypaj0kQ8kdH_EXp-10">
          <mxGeometry relative="1" as="geometry" />
        </mxCell>
        <mxCell id="Avi-Nypaj0kQ8kdH_EXp-2" value="inlog" style="rounded=1;whiteSpace=wrap;html=1;" vertex="1" parent="1">
          <mxGeometry x="370" y="240" width="120" height="60" as="geometry" />
        </mxCell>
        <mxCell id="Avi-Nypaj0kQ8kdH_EXp-3" value="hobby" style="rounded=1;whiteSpace=wrap;html=1;" vertex="1" parent="1">
          <mxGeometry x="370" y="160" width="120" height="60" as="geometry" />
        </mxCell>
        <mxCell id="Avi-Nypaj0kQ8kdH_EXp-4" value="me" style="rounded=1;whiteSpace=wrap;html=1;" vertex="1" parent="1">
          <mxGeometry x="370" y="80" width="120" height="60" as="geometry" />
        </mxCell>
        <mxCell id="Avi-Nypaj0kQ8kdH_EXp-7" value="interview" style="rounded=1;whiteSpace=wrap;html=1;" vertex="1" parent="1">
          <mxGeometry x="370" y="320" width="120" height="60" as="geometry" />
        </mxCell>
        <mxCell id="Avi-Nypaj0kQ8kdH_EXp-20" style="edgeStyle=orthogonalEdgeStyle;rounded=0;orthogonalLoop=1;jettySize=auto;html=1;exitX=1;exitY=0.5;exitDx=0;exitDy=0;entryX=0;entryY=0.5;entryDx=0;entryDy=0;" edge="1" parent="1" source="Avi-Nypaj0kQ8kdH_EXp-8" target="Avi-Nypaj0kQ8kdH_EXp-19">
          <mxGeometry relative="1" as="geometry" />
        </mxCell>
        <mxCell id="Avi-Nypaj0kQ8kdH_EXp-21" style="edgeStyle=orthogonalEdgeStyle;rounded=0;orthogonalLoop=1;jettySize=auto;html=1;exitX=1;exitY=0.5;exitDx=0;exitDy=0;entryX=0;entryY=0.5;entryDx=0;entryDy=0;" edge="1" parent="1" source="Avi-Nypaj0kQ8kdH_EXp-8" target="Avi-Nypaj0kQ8kdH_EXp-18">
          <mxGeometry relative="1" as="geometry" />
        </mxCell>
        <mxCell id="Avi-Nypaj0kQ8kdH_EXp-8" value="social" style="rounded=1;whiteSpace=wrap;html=1;" vertex="1" parent="1">
          <mxGeometry x="370" y="400" width="120" height="60" as="geometry" />
        </mxCell>
        <mxCell id="Avi-Nypaj0kQ8kdH_EXp-9" value="projecten" style="rounded=1;whiteSpace=wrap;html=1;" vertex="1" parent="1">
          <mxGeometry x="370" y="480" width="120" height="60" as="geometry" />
        </mxCell>
        <mxCell id="Avi-Nypaj0kQ8kdH_EXp-10" value="inlog 2" style="rounded=1;whiteSpace=wrap;html=1;" vertex="1" parent="1">
          <mxGeometry x="550" y="240" width="120" height="60" as="geometry" />
        </mxCell>
        <mxCell id="Avi-Nypaj0kQ8kdH_EXp-18" value="mail" style="rounded=1;whiteSpace=wrap;html=1;" vertex="1" parent="1">
          <mxGeometry x="550" y="360" width="120" height="60" as="geometry" />
        </mxCell>
        <mxCell id="Avi-Nypaj0kQ8kdH_EXp-19" value="github" style="rounded=1;whiteSpace=wrap;html=1;" vertex="1" parent="1">
          <mxGeometry x="550" y="440" width="120" height="60" as="geometry" />
        </mxCell>
      </root>
    </mxGraphModel>
  </diagram>
</mxfile>
